<svg xmlns="http://www.w3.org/2000/svg" viewBox="0 0 32 32" width="32" height="32">
  <defs>
    <linearGradient id="grad1" x1="0%" y1="0%" x2="100%" y2="100%">
      <stop offset="0%" style="stop-color:#8B5CF6;stop-opacity:1" />
      <stop offset="100%" style="stop-color:#EC4899;stop-opacity:1" />
    </linearGradient>
    <linearGradient id="grad2" x1="0%" y1="0%" x2="100%" y2="100%">
      <stop offset="0%" style="stop-color:#EC4899;stop-opacity:1" />
      <stop offset="100%" style="stop-color:#F59E0B;stop-opacity:1" />
    </linearGradient>
  </defs>
  
  <!-- Background circle -->
  <circle cx="16" cy="16" r="15" fill="url(#grad1)" stroke="#1F2937" stroke-width="1"/>
  
  <!-- Musical note -->
  <path d="M20 8 L20 20 Q20 22 18 22 Q16 22 16 20 L16 12 L12 14 L12 16 L16 14 L16 22 Q16 24 18 24 Q20 24 20 22 L20 8 Z" fill="url(#grad2)"/>
  
  <!-- Letter L -->
  <path d="M8 8 L8 24 L14 24 L14 20 L12 20 L12 8 Z" fill="white" opacity="0.9"/>
  
  <!-- Small accent note -->
  <circle cx="24" cy="10" r="1.5" fill="white" opacity="0.7"/>
  <path d="M24 10 L24 6" stroke="white" stroke-width="1" opacity="0.7" stroke-linecap="round"/>
</svg> 