<svg xmlns="http://www.w3.org/2000/svg" viewBox="0 0 32 32" width="32" height="32">
  <defs>
    <linearGradient id="deckGrad" x1="0%" y1="0%" x2="100%" y2="100%">
      <stop offset="0%" style="stop-color:#8B5CF6;stop-opacity:1" />
      <stop offset="100%" style="stop-color:#EC4899;stop-opacity:1" />
    </linearGradient>
    <linearGradient id="vinylGrad" x1="0%" y1="0%" x2="100%" y2="100%">
      <stop offset="0%" style="stop-color:#1F2937;stop-opacity:1" />
      <stop offset="100%" style="stop-color:#374151;stop-opacity:1" />
    </linearGradient>
  </defs>
  
  <!-- DJ Deck base -->
  <rect x="2" y="20" width="28" height="10" rx="1" fill="#1F2937"/>
  
  <!-- Left turntable -->
  <circle cx="8" cy="16" r="5" fill="url(#vinylGrad)"/>
  <circle cx="8" cy="16" r="4" fill="none" stroke="#8B5CF6" stroke-width="0.5"/>
  <circle cx="8" cy="16" r="3" fill="none" stroke="#EC4899" stroke-width="0.5"/>
  <circle cx="8" cy="16" r="1" fill="white"/>
  
  <!-- Right turntable -->
  <circle cx="24" cy="16" r="5" fill="url(#vinylGrad)"/>
  <circle cx="24" cy="16" r="4" fill="none" stroke="#8B5CF6" stroke-width="0.5"/>
  <circle cx="24" cy="16" r="3" fill="none" stroke="#EC4899" stroke-width="0.5"/>
  <circle cx="24" cy="16" r="1" fill="white"/>
  
  <!-- Mixer section -->
  <rect x="12" y="18" width="8" height="4" fill="#374151"/>
  <rect x="13" y="19" width="1" height="2" fill="url(#deckGrad)"/>
  <rect x="15" y="19" width="1" height="2" fill="url(#deckGrad)"/>
  <rect x="17" y="19" width="1" height="2" fill="url(#deckGrad)"/>
  
  <!-- Letter L as tone arm -->
  <path d="M6 8 L6 14 L8 14 L8 12 L10 12 L10 24 L8 24 L8 8 Z" fill="white" opacity="0.9"/>
  
  <!-- Small accent dots on turntables -->
  <circle cx="6" cy="14" r="0.3" fill="white" opacity="0.7"/>
  <circle cx="10" cy="14" r="0.3" fill="white" opacity="0.7"/>
  <circle cx="22" cy="14" r="0.3" fill="white" opacity="0.7"/>
  <circle cx="26" cy="14" r="0.3" fill="white" opacity="0.7"/>
</svg> 